<?xml version="1.0" encoding="utf-8"?>
<!-- Generator: Adobe Illustrator 24.3.0, SVG Export Plug-In . SVG Version: 6.00 Build 0)  -->
<svg version="1.1" id="Layer_1" xmlns="http://www.w3.org/2000/svg" xmlns:xlink="http://www.w3.org/1999/xlink" x="0px" y="0px"
	 viewBox="0 0 32 32" style="enable-background:new 0 0 32 32;" xml:space="preserve">
<style type="text/css">
	.st0{fill:#FCD53F;}
	.st1{fill:#F9C23C;}
	.st2{fill:#B4ACBC;}
	.st3{fill:#F3EEF8;}
</style>
<g>
	<path class="st0" d="M17.2,12.6c0,3.9-3.2,7.1-7.1,7.1S3,16.6,3,12.6s3.2-7.1,7.1-7.1S17.2,8.7,17.2,12.6z"/>
	<path class="st1" d="M9.9,8.1c0.4,0,0.8-0.3,0.8-0.8c0-0.4-0.3-0.8-0.8-0.8c-0.4,0-0.8,0.3-0.8,0.8C9.1,7.7,9.4,8.1,9.9,8.1z
		 M6.8,12.6c1,0,1.8-0.8,1.8-1.8S7.8,9.1,6.8,9.1s-1.8,0.8-1.8,1.8S5.8,12.6,6.8,12.6z M14.7,10.3c0,0.7-0.6,1.3-1.3,1.3
		c-0.7,0-1.3-0.6-1.3-1.3c0-0.7,0.6-1.3,1.3-1.3C14.1,9.1,14.7,9.6,14.7,10.3z M10.4,16.7c0.7,0,1.3-0.6,1.3-1.3s-0.6-1.3-1.3-1.3
		s-1.3,0.6-1.3,1.3S9.7,16.7,10.4,16.7z M7.2,19.1c-1.1-0.5-2-1.3-2.8-2.2C5,16.1,6.1,16,6.9,16.6C7.7,17.2,7.8,18.3,7.2,19.1
		C7.2,19.1,7.2,19.1,7.2,19.1L7.2,19.1z M14.6,18.1c0.9-0.7,1.6-1.7,2.1-2.8c-0.9-0.4-1.9,0-2.4,0.9C14,16.8,14.2,17.6,14.6,18.1
		L14.6,18.1z"/>
</g>
<path class="st2" d="M14.7,8.4c-4.5,0-8.3,3.4-8.7,7.9c-3,1-5,3.9-5,7c0,1.7,0.6,3.3,1.6,4.6C4,29.9,6.2,31,8.6,31h12.7
	c3,0,5.9-1.5,7.6-3.9c3-4,2.7-9.6-1-13.2c-1.9-1.8-4.4-2.8-7-2.8C19.3,9.4,17.1,8.4,14.7,8.4z"/>
<path class="st3" d="M20.5,12c-2.8-3.2-7.7-3.5-10.9-0.7C7.9,12.8,7,14.9,7,17.1c-2.9,0.7-5,3.3-5,6.3c0,1.5,0.5,2.9,1.4,4
	C4.6,29.1,6.6,30,8.6,30h12.7c2.8,0,5.3-1.4,6.8-3.5c2.7-3.6,2.4-8.7-0.9-11.9C25.5,12.8,23,11.9,20.5,12z"/>
</svg>
