<?xml version="1.0" encoding="utf-8"?>
<!-- Generator: Adobe Illustrator 24.3.0, SVG Export Plug-In . SVG Version: 6.00 Build 0)  -->
<svg version="1.1" id="Layer_1" xmlns="http://www.w3.org/2000/svg" xmlns:xlink="http://www.w3.org/1999/xlink" x="0px" y="0px"
	 viewBox="0 0 32 32" style="enable-background:new 0 0 32 32;" xml:space="preserve">
<style type="text/css">
	.st0{fill:#FCD53F;}
	.st1{fill:#F9C23C;}
	.st2{fill:#B4ACBC;}
	.st3{fill:#3F5FFF;}
	.st4{fill:#F3EEF8;}
</style>
<g>
	<path class="st0" d="M16.3,7.7c0,3.7-3,6.7-6.7,6.7s-6.7-3-6.7-6.7S5.9,1,9.6,1S16.3,4,16.3,7.7z"/>
	<path class="st1" d="M9.4,3.4c0.4,0,0.7-0.3,0.7-0.7S9.8,1.9,9.4,1.9C9,1.9,8.6,2.3,8.6,2.7S9,3.4,9.4,3.4z M6.5,7.7
		C7.4,7.7,8.2,7,8.2,6S7.4,4.4,6.5,4.4S4.8,5.1,4.8,6S5.5,7.7,6.5,7.7z M13.9,5.6c0,0.7-0.5,1.2-1.2,1.2c-0.7,0-1.2-0.5-1.2-1.2
		s0.5-1.2,1.2-1.2C13.4,4.4,13.9,4.9,13.9,5.6z M9.8,11.6c0.7,0,1.2-0.5,1.2-1.2c0-0.7-0.5-1.2-1.2-1.2s-1.2,0.5-1.2,1.2
		C8.6,11,9.2,11.6,9.8,11.6z M6.8,13.9c-1-0.5-1.9-1.2-2.6-2.1c0.6-0.7,1.6-0.8,2.4-0.3S7.4,13.1,6.8,13.9
		C6.8,13.8,6.8,13.8,6.8,13.9L6.8,13.9z M13.9,12.9c0.9-0.7,1.5-1.6,2-2.6c-0.8-0.4-1.8,0-2.2,0.8C13.3,11.7,13.4,12.4,13.9,12.9
		L13.9,12.9z"/>
</g>
<path class="st2" d="M28,5.8c-3.9-3.8-10.1-3.8-14,0c-2.2-0.8-4.7,0.1-6,2.1c-3.9,0.2-7,3.5-7,7.5c0,1.8,0.6,3.4,1.6,4.7
	c1.4,1.9,3.6,3,6,3h12.7c3,0,5.9-1.5,7.6-3.9C32,15.1,31.6,9.4,28,5.8z"/>
<path class="st3" d="M7.1,29.3l2.3-3.2c0.6-0.8,0.4-1.9-0.4-2.4s-1.9-0.4-2.4,0.4l-2.3,3.2c-0.6,0.8-0.4,1.9,0.4,2.4
	S6.5,30.1,7.1,29.3z M16,26.1l-2.3,3.2c-0.6,0.8-1.7,1-2.4,0.4s-0.9-1.7-0.4-2.4l2.3-3.2c0.6-0.8,1.7-1,2.4-0.4
	C16.4,24.3,16.6,25.3,16,26.1z M22.6,26.1l-2.3,3.2c-0.6,0.8-1.7,1-2.4,0.4s-1-1.7-0.4-2.4l2.3-3.2c0.6-0.8,1.7-1,2.4-0.4
	C23,24.3,23.1,25.3,22.6,26.1z"/>
<path class="st4" d="M14.6,6.7c3.5-3.6,9.2-3.6,12.7-0.2c3.3,3.2,3.6,8.3,0.9,11.9C26.6,20.7,24,22,21.3,22H8.6c-2,0-4-0.9-5.2-2.6
	c-0.9-1.1-1.4-2.6-1.4-4c0-3.6,2.9-6.5,6.5-6.5c0,0,0.1,0,0.1,0c0.9-2,3.3-2.9,5.4-2c0.1,0,0.2,0.1,0.3,0.1
	C14.3,6.9,14.5,6.8,14.6,6.7z"/>
</svg>
